<svg id="svg" xmlns="http://www.w3.org/2000/svg" xmlns:xlink="http://www.w3.org/1999/xlink" width="400" height="400" viewBox="0, 0, 400,400"><g id="svgg"><path id="path0" d="M176.000 25.266 C 76.497 32.655,7.356 125.391,28.779 222.725 C 40.695 276.863,81.563 322.753,133.642 340.473 C 140.905 342.945,146.714 339.852,149.426 332.070 L 150.104 330.125 150.186 318.500 C 150.232 311.973,150.171 306.730,150.046 306.545 C 149.865 306.276,149.117 306.332,145.974 306.854 C 125.999 310.172,109.925 305.927,98.249 294.251 C 93.586 289.588,92.137 287.367,88.732 279.672 C 85.082 271.420,79.323 263.672,74.135 260.032 C 67.773 255.567,66.446 252.391,70.466 251.249 C 79.956 248.554,92.869 255.105,100.279 266.375 C 104.589 272.930,108.411 276.444,114.655 279.593 C 123.982 284.295,138.059 285.389,147.750 282.165 L 150.125 281.375 150.290 276.750 C 150.546 269.551,151.508 264.450,153.269 260.963 C 153.689 260.131,153.997 259.416,153.954 259.376 C 153.910 259.336,152.919 259.115,151.750 258.886 C 106.804 250.071,80.482 226.357,75.707 190.375 C 75.177 186.386,75.257 172.747,75.834 168.500 C 78.204 151.062,85.213 135.796,95.941 124.704 L 97.073 123.533 96.269 122.280 C 89.232 111.313,89.887 89.213,97.601 77.380 L 99.036 75.178 102.580 75.322 C 117.378 75.923,133.455 83.244,144.779 94.536 L 147.197 96.947 149.286 96.200 C 168.877 89.196,203.025 88.960,224.817 95.678 L 227.760 96.585 230.192 94.176 C 241.599 82.880,259.043 75.250,273.463 75.250 L 275.900 75.250 277.171 77.188 C 284.690 88.652,285.921 111.154,279.618 121.910 L 278.971 123.013 280.632 124.819 C 288.125 132.967,294.038 144.307,297.102 156.406 C 300.734 170.749,300.647 188.896,296.884 201.969 C 288.364 231.571,262.700 251.301,222.688 259.009 C 221.897 259.161,221.250 259.337,221.250 259.399 C 221.250 259.461,221.631 260.269,222.097 261.194 C 224.720 266.403,224.977 270.461,224.991 306.956 L 225.000 330.287 225.643 332.204 C 228.211 339.851,234.092 342.946,241.358 340.473 C 306.951 318.152,350.965 254.932,349.925 184.532 C 349.794 175.636,349.667 173.550,348.856 167.000 C 338.305 81.720,261.695 18.903,176.000 25.266 " stroke="none" fill="#000000" fill-rule="evenodd"></path></g></svg>