<svg id="svg" xmlns="http://www.w3.org/2000/svg" xmlns:xlink="http://www.w3.org/1999/xlink" width="400" height="405.39325842696627" viewBox="0, 0, 400,405.39325842696627"><g id="svgg"><path id="path0" d="M185.768 11.113 C 158.923 12.994,132.407 20.612,108.914 33.195 C 1.429 90.761,-25.773 231.920,52.513 325.872 C 114.631 400.421,222.722 416.494,303.667 363.220 C 399.919 299.870,419.511 167.228,345.650 78.982 C 306.582 32.305,246.618 6.851,185.768 11.113 M216.435 41.926 C 319.852 53.860,385.067 156.866,351.306 254.953 C 335.816 299.954,299.255 337.523,253.034 355.934 L 247.041 358.321 246.871 339.086 C 246.710 320.945,246.664 319.692,246.068 317.070 C 243.965 307.816,239.797 300.809,233.379 295.735 L 231.921 294.583 233.039 294.411 C 233.654 294.316,235.790 294.033,237.785 293.782 C 284.648 287.880,309.872 265.669,316.097 224.822 C 320.587 195.361,315.030 171.316,300.000 155.164 L 298.705 153.773 299.149 152.617 C 303.654 140.865,303.369 124.232,298.404 109.181 C 296.716 104.064,297.173 104.414,292.233 104.446 C 281.185 104.516,266.551 110.301,249.869 121.193 L 246.106 123.651 244.776 123.250 C 220.460 115.929,183.725 115.730,157.004 122.776 L 153.858 123.605 150.562 121.475 C 131.822 109.360,113.760 102.729,104.270 104.479 L 102.921 104.728 101.354 109.410 C 96.468 124.004,96.126 139.550,100.417 151.964 L 101.006 153.665 98.556 156.579 C 86.122 171.368,80.962 189.025,82.368 211.969 C 85.005 254.981,104.130 279.841,142.424 290.035 C 148.764 291.723,154.953 292.843,166.585 294.409 L 167.927 294.589 167.035 295.222 C 162.110 298.711,157.506 305.293,155.225 312.106 C 153.166 318.252,153.047 319.668,152.895 339.850 C 152.806 351.606,152.652 358.052,152.460 358.052 C 150.544 358.052,133.219 350.527,125.543 346.361 C 16.278 287.060,7.394 138.660,108.914 68.559 C 131.604 52.891,159.914 43.311,189.663 41.233 C 194.470 40.898,211.297 41.333,216.435 41.926 " stroke="none" fill="#000000" fill-rule="evenodd"></path></g></svg>