<svg id="svg" xmlns="http://www.w3.org/2000/svg" xmlns:xlink="http://www.w3.org/1999/xlink" width="400" height="400" viewBox="0, 0, 400,400"><g id="svgg"><path id="path0" d="M99.707 80.778 C 84.163 83.183,74.628 94.238,75.057 109.359 C 75.516 125.525,87.380 136.212,104.883 136.227 C 125.569 136.244,138.859 121.126,134.755 102.246 C 131.469 87.129,116.788 78.136,99.707 80.778 M258.691 154.431 C 240.940 155.342,226.769 163.583,216.148 179.173 L 215.234 180.514 215.234 169.261 L 215.234 158.008 188.330 158.008 L 161.426 158.008 161.421 238.770 L 161.416 319.531 188.321 319.531 L 215.225 319.531 215.289 271.240 L 215.352 222.949 215.771 220.793 C 218.681 205.814,232.556 195.452,247.559 197.054 C 261.868 198.582,269.572 208.466,271.093 227.246 C 271.208 228.671,271.284 247.220,271.286 274.561 L 271.289 319.531 298.243 319.531 L 325.197 319.531 325.173 270.752 C 325.149 222.497,325.114 219.490,324.505 213.770 C 320.321 174.464,295.979 152.517,258.691 154.431 M78.125 238.770 L 78.125 319.531 105.078 319.531 L 132.031 319.531 132.031 238.770 L 132.031 158.008 105.078 158.008 L 78.125 158.008 78.125 238.770 " stroke="none" fill="#000000" fill-rule="evenodd"></path></g></svg>