<svg id="svg" xmlns="http://www.w3.org/2000/svg" xmlns:xlink="http://www.w3.org/1999/xlink" width="400" height="400" viewBox="0, 0, 400,400"><g id="svgg"><path id="path0" d="M10.980 0.556 C 6.793 1.688,3.229 4.761,1.278 8.922 L 0.204 11.213 0.204 199.805 L 0.204 388.396 1.529 391.088 C 3.100 394.279,5.659 396.785,8.899 398.304 L 11.213 399.388 199.805 399.388 L 388.396 399.388 391.088 398.063 C 394.279 396.492,396.785 393.933,398.304 390.693 L 399.388 388.379 399.388 199.796 L 399.388 11.213 398.304 8.899 C 396.785 5.659,394.279 3.100,391.088 1.529 L 388.396 0.204 200.620 0.128 C 52.690 0.069,12.449 0.160,10.980 0.556 M100.510 59.393 C 106.016 62.370,106.016 62.371,106.005 86.123 C 105.992 115.905,108.294 113.761,76.325 113.761 C 52.640 113.761,52.849 113.782,49.866 111.157 C 46.394 108.100,46.502 108.895,46.492 86.490 C 46.481 62.361,46.740 61.272,53.007 59.096 C 56.667 57.825,98.088 58.084,100.510 59.393 M287.784 139.880 C 321.495 143.540,343.911 161.935,350.252 191.142 C 352.879 203.240,353.096 209.534,353.103 273.917 C 353.110 337.063,353.294 332.637,350.540 335.510 C 347.395 338.791,348.762 338.634,323.344 338.634 C 297.785 338.634,299.081 338.791,296.037 335.324 C 293.436 332.361,293.578 334.961,293.573 290.431 C 293.563 213.142,292.647 206.062,281.183 194.687 C 264.400 178.036,230.790 183.873,216.552 205.912 C 211.525 213.694,209.625 220.856,207.897 238.532 C 207.611 241.466,207.344 259.706,207.185 287.258 L 206.932 331.295 205.978 333.232 C 204.823 335.576,202.718 337.391,200.173 338.237 C 197.054 339.273,154.924 338.949,152.905 337.874 C 150.908 336.810,149.311 335.242,148.281 333.333 L 147.401 331.702 147.295 242.463 C 147.223 181.853,147.325 152.720,147.612 151.654 C 148.233 149.349,150.389 146.774,152.693 145.588 L 154.717 144.546 174.042 144.429 C 202.576 144.256,202.290 144.090,202.650 161.120 C 202.946 175.126,203.376 175.400,211.962 167.074 C 229.403 150.162,246.197 141.950,267.890 139.726 C 271.228 139.384,284.137 139.484,287.784 139.880 M100.510 145.428 C 102.616 146.567,104.584 148.635,105.382 150.548 C 106.346 152.860,106.346 330.321,105.382 332.633 C 104.584 334.546,102.616 336.614,100.510 337.752 C 97.932 339.146,54.556 339.136,51.949 337.741 C 50.005 336.700,47.844 334.373,47.044 332.459 C 46.272 330.611,46.200 153.743,46.970 151.172 C 47.713 148.690,50.347 146.054,53.007 145.131 C 56.667 143.859,98.088 144.119,100.510 145.428 " stroke="none" fill="#000000" fill-rule="evenodd"></path></g></svg>