<svg id="svg" xmlns="http://www.w3.org/2000/svg" xmlns:xlink="http://www.w3.org/1999/xlink" width="400" height="400" viewBox="0, 0, 400,400"><g id="svgg"><path id="path0" d="M178.250 50.158 C 145.779 51.071,99.053 55.309,74.875 59.532 C 53.279 63.304,36.382 80.252,32.035 102.500 C 22.621 150.692,22.673 224.470,32.156 273.112 C 36.096 293.318,51.445 309.605,71.289 314.635 C 78.993 316.588,113.508 320.730,137.750 322.612 C 161.142 324.428,173.475 324.875,200.125 324.875 C 226.295 324.875,236.461 324.517,260.750 322.740 C 283.997 321.038,320.174 316.755,328.500 314.718 C 345.435 310.575,359.428 297.934,365.604 281.200 C 369.149 271.594,372.888 243.089,374.550 213.000 C 374.989 205.056,374.993 170.002,374.556 162.125 C 372.952 133.219,369.356 105.025,365.998 95.028 C 359.809 76.601,343.947 62.825,325.125 59.531 C 305.200 56.044,267.488 52.302,236.375 50.726 C 226.710 50.237,188.665 49.865,178.250 50.158 M233.500 75.845 C 264.532 77.443,294.533 80.332,318.500 84.030 C 332.230 86.148,340.856 94.715,343.362 108.720 C 351.947 156.709,351.955 218.272,343.384 266.473 C 340.902 280.432,332.038 288.958,317.875 291.009 C 261.496 299.174,207.983 301.634,155.125 298.489 C 131.514 297.085,107.762 294.684,84.625 291.365 C 74.759 289.950,70.406 288.169,65.426 283.511 C 59.923 278.362,57.798 273.551,55.871 261.875 C 48.212 215.467,48.271 158.696,56.027 112.007 C 57.709 101.883,59.512 97.647,64.275 92.633 C 69.720 86.901,73.868 85.164,86.375 83.380 C 116.449 79.089,146.209 76.515,178.625 75.401 C 185.781 75.156,226.506 75.485,233.500 75.845 M150.000 187.500 C 150.000 221.875,150.056 250.000,150.125 250.000 C 150.370 250.000,275.000 187.623,275.000 187.500 C 275.000 187.377,150.370 125.000,150.125 125.000 C 150.056 125.000,150.000 153.125,150.000 187.500 " stroke="none" fill="#000000" fill-rule="evenodd"></path></g></svg>