<svg id="svg" xmlns="http://www.w3.org/2000/svg" xmlns:xlink="http://www.w3.org/1999/xlink" width="400" height="400" viewBox="0, 0, 400,400"><g id="svgg"><path id="path0" d="M126.172 60.988 C 74.003 62.476,46.138 65.205,35.621 69.856 C 14.135 79.358,5.873 96.069,1.405 139.063 C -0.300 155.476,0.005 250.164,1.812 265.199 C 8.045 317.056,19.673 330.998,60.156 335.153 C 144.631 343.822,340.797 340.573,364.447 330.114 C 394.164 316.972,400.587 291.571,399.788 190.368 C 399.075 100.105,391.511 77.568,358.594 67.628 C 339.429 61.841,217.953 58.370,126.172 60.988 M207.813 161.319 C 238.965 177.540,266.682 192.034,269.407 193.530 L 274.361 196.250 211.985 228.582 C 177.678 246.365,149.346 260.920,149.023 260.926 C 148.701 260.932,148.438 231.570,148.438 195.676 C 148.438 133.773,148.508 130.450,149.805 131.121 C 150.557 131.510,176.660 145.099,207.813 161.319 " stroke="none" fill="#000000" fill-rule="evenodd"></path></g></svg>